solid inlet2
facet normal 0.0 1.0 -0.0
outer loop
vertex 0.0006949992179870605 0.0012899999618530274 0.0
vertex 0.0005950007438659668 0.0012899999618530274 9.999942779541016e-05
vertex 0.0006949992179870605 0.0012899999618530274 9.999942779541016e-05
endloop
endfacet
facet normal 0.0 1.0 0.0
outer loop
vertex 0.0005950007438659668 0.0012899999618530274 9.999942779541016e-05
vertex 0.0006949992179870605 0.0012899999618530274 0.0
vertex 0.0005950007438659668 0.0012899999618530274 0.0
endloop
endfacet
endsolid inlet2
