solid inlet1
facet normal -1.0 0.0 0.0
outer loop
vertex 4.95910626341356e-10 0.0005949994325637818 0.0
vertex 4.95910626341356e-10 0.0006949998140335083 9.999942779541016e-05
vertex 4.95910626341356e-10 0.0006949998140335083 0.0
endloop
endfacet
facet normal -1.0 -0.0 0.0
outer loop
vertex 4.95910626341356e-10 0.0006949998140335083 9.999942779541016e-05
vertex 4.95910626341356e-10 0.0005949994325637818 0.0
vertex 4.95910626341356e-10 0.0005949994325637818 9.999942779541016e-05
endloop
endfacet
endsolid inlet1
