solid inlet3
facet normal 1.0 -0.0 0.0
outer loop
vertex 0.0012899994850158693 0.0005949994325637818 9.999942779541016e-05
vertex 0.0012899994850158693 0.0006949998140335083 0.0
vertex 0.0012899994850158693 0.0006949998140335083 9.999942779541016e-05
endloop
endfacet
facet normal 1.0 0.0 0.0
outer loop
vertex 0.0012899994850158693 0.0006949998140335083 0.0
vertex 0.0012899994850158693 0.0005949994325637818 9.999942779541016e-05
vertex 0.0012899994850158693 0.0005949994325637818 0.0
endloop
endfacet
endsolid inlet3
