solid outlet2
facet normal -0.7071066321740317 0.7071069301990319 0.0
outer loop
vertex 0.0003126596212387085 0.0010480500459671021 0.0
vertex 0.00024194934964179993 0.000977339804172516 9.999942779541016e-05
vertex 0.0003126596212387085 0.0010480500459671021 9.999942779541016e-05
endloop
endfacet
facet normal -0.7071066321740317 0.7071069301990319 0.0
outer loop
vertex 0.00024194934964179993 0.000977339804172516 9.999942779541016e-05
vertex 0.0003126596212387085 0.0010480500459671021 0.0
vertex 0.00024194934964179993 0.000977339804172516 0.0
endloop
endfacet
endsolid outlet2
