solid outlet3
facet normal 0.7071067811865475 0.7071067811865475 -0.0
outer loop
vertex 0.0010480506420135498 0.000977339804172516 9.999942779541016e-05
vertex 0.0009773404002189636 0.0010480500459671021 0.0
vertex 0.0009773404002189636 0.0010480500459671021 9.999942779541016e-05
endloop
endfacet
facet normal 0.7071067811865475 0.7071067811865475 0.0
outer loop
vertex 0.0009773404002189636 0.0010480500459671021 0.0
vertex 0.0010480506420135498 0.000977339804172516 9.999942779541016e-05
vertex 0.0010480506420135498 0.000977339804172516 0.0
endloop
endfacet
endsolid outlet3
