solid outlet4
facet normal 0.7071070047052389 -0.7071065576677855 0.0
outer loop
vertex 0.0009773396849632264 0.00024194945394992828 9.999942779541016e-05
vertex 0.0010480499267578125 0.00031265974044799807 0.0
vertex 0.0010480499267578125 0.00031265974044799807 9.999942779541016e-05
endloop
endfacet
facet normal 0.7071070047052389 -0.7071065576677855 0.0
outer loop
vertex 0.0010480499267578125 0.00031265974044799807 0.0
vertex 0.0009773396849632264 0.00024194945394992828 9.999942779541016e-05
vertex 0.0009773396849632264 0.00024194945394992828 0.0
endloop
endfacet
endsolid outlet4
