solid outlet1
facet normal -0.7071067811865475 -0.7071067811865475 -0.0
outer loop
vertex 0.00031266030669212344 0.00024194945394992828 0.0
vertex 0.00024195002019405365 0.00031265974044799807 9.999942779541016e-05
vertex 0.00024195002019405365 0.00031265974044799807 0.0
endloop
endfacet
facet normal -0.7071067811865475 -0.7071067811865475 0.0
outer loop
vertex 0.00024195002019405365 0.00031265974044799807 9.999942779541016e-05
vertex 0.00031266030669212344 0.00024194945394992828 0.0
vertex 0.00031266030669212344 0.00024194945394992828 9.999942779541016e-05
endloop
endfacet
endsolid outlet1
