solid walls
facet normal 0.7071067811865477 0.7071067811865474 -0.0
outer loop
vertex 0.0009066294431686402 0.0009773391485214233 9.999942779541016e-05
vertex 0.0006949992179870605 0.001188969373703003 0.0
vertex 0.0006949992179870605 0.001188969373703003 9.999942779541016e-05
endloop
endfacet
facet normal 0.7071067811865477 0.7071067811865474 0.0
outer loop
vertex 0.0006949992179870605 0.001188969373703003 0.0
vertex 0.0009066294431686402 0.0009773391485214233 9.999942779541016e-05
vertex 0.0009066294431686402 0.0009773391485214233 0.0
endloop
endfacet
facet normal 0.7071066816093655 0.7071068807637155 0.0
outer loop
vertex 0.0011889687776565551 0.0006949998140335083 0.0
vertex 0.0009773396849632264 0.0009066288471221924 9.999942779541016e-05
vertex 0.0011889687776565551 0.0006949998140335083 9.999942779541016e-05
endloop
endfacet
facet normal 0.7071066816093655 0.7071068807637155 0.0
outer loop
vertex 0.0009773396849632264 0.0009066288471221924 9.999942779541016e-05
vertex 0.0011889687776565551 0.0006949998140335083 0.0
vertex 0.0009773396849632264 0.0009066288471221924 0.0
endloop
endfacet
facet normal -0.7071067189509209 -0.7071068434221685 0.0
outer loop
vertex 0.0001010308489203453 0.0005949994325637818 0.0
vertex 0.00031266030669212344 0.00038337001204490664 9.999942779541016e-05
vertex 0.0001010308489203453 0.0005949994325637818 9.999942779541016e-05
endloop
endfacet
facet normal -0.7071067189509209 -0.7071068434221685 0.0
outer loop
vertex 0.00031266030669212344 0.00038337001204490664 9.999942779541016e-05
vertex 0.0001010308489203453 0.0005949994325637818 0.0
vertex 0.00031266030669212344 0.00038337001204490664 0.0
endloop
endfacet
facet normal -0.7071068434219495 -0.70710671895114 0.0
outer loop
vertex 0.000383370578289032 0.00031265974044799807 9.999942779541016e-05
vertex 0.0005950007438659668 0.00010102953761816025 0.0
vertex 0.0005950007438659668 0.00010102953761816025 9.999942779541016e-05
endloop
endfacet
facet normal -0.7071068434219495 -0.70710671895114 -0.0
outer loop
vertex 0.0005950007438659668 0.00010102953761816025 0.0
vertex 0.000383370578289032 0.00031265974044799807 9.999942779541016e-05
vertex 0.000383370578289032 0.00031265974044799807 0.0
endloop
endfacet
facet normal -0.7071067811865476 0.7071067811865476 0.0
outer loop
vertex 0.00010103127360343933 0.0006949998140335083 0.0
vertex 0.00031266030669212344 0.0009066288471221924 9.999942779541016e-05
vertex 0.00031266030669212344 0.0009066288471221924 0.0
endloop
endfacet
facet normal -0.7071067811865476 0.7071067811865476 0.0
outer loop
vertex 0.00031266030669212344 0.0009066288471221924 9.999942779541016e-05
vertex 0.00010103127360343933 0.0006949998140335083 0.0
vertex 0.00010103127360343933 0.0006949998140335083 9.999942779541016e-05
endloop
endfacet
facet normal -0.707106880763183 0.7071066816098979 0.0
outer loop
vertex 0.000383370578289032 0.0009773391485214233 0.0
vertex 0.0005950007438659668 0.001188969373703003 9.999942779541016e-05
vertex 0.0005950007438659668 0.001188969373703003 0.0
endloop
endfacet
facet normal -0.707106880763183 0.7071066816098979 0.0
outer loop
vertex 0.0005950007438659668 0.001188969373703003 9.999942779541016e-05
vertex 0.000383370578289032 0.0009773391485214233 0.0
vertex 0.000383370578289032 0.0009773391485214233 9.999942779541016e-05
endloop
endfacet
facet normal 0.7071067438453089 -0.7071068185277842 0.0
outer loop
vertex 0.0009066294431686402 0.00031265974044799807 9.999942779541016e-05
vertex 0.0006949992179870605 0.00010102953761816025 0.0
vertex 0.0009066294431686402 0.00031265974044799807 0.0
endloop
endfacet
facet normal 0.7071067438453089 -0.7071068185277842 0.0
outer loop
vertex 0.0006949992179870605 0.00010102953761816025 0.0
vertex 0.0009066294431686402 0.00031265974044799807 9.999942779541016e-05
vertex 0.0006949992179870605 0.00010102953761816025 9.999942779541016e-05
endloop
endfacet
facet normal 0.7071067313980459 -0.7071068309750456 0.0
outer loop
vertex 0.0009773396849632264 0.00038337001204490664 0.0
vertex 0.0011889691352844239 0.0005949994325637818 9.999942779541016e-05
vertex 0.0009773396849632264 0.00038337001204490664 9.999942779541016e-05
endloop
endfacet
facet normal 0.7071067313980459 -0.7071068309750456 0.0
outer loop
vertex 0.0011889691352844239 0.0005949994325637818 9.999942779541016e-05
vertex 0.0009773396849632264 0.00038337001204490664 0.0
vertex 0.0011889691352844239 0.0005949994325637818 0.0
endloop
endfacet
facet normal 0.7071069301990319 0.7071066321740317 -0.0
outer loop
vertex 0.0010480499267578125 0.00031265974044799807 9.999942779541016e-05
vertex 0.0009773396849632264 0.00038337001204490664 0.0
vertex 0.0009773396849632264 0.00038337001204490664 9.999942779541016e-05
endloop
endfacet
facet normal 0.7071069301990319 0.7071066321740317 0.0
outer loop
vertex 0.0009773396849632264 0.00038337001204490664 0.0
vertex 0.0010480499267578125 0.00031265974044799807 9.999942779541016e-05
vertex 0.0010480499267578125 0.00031265974044799807 0.0
endloop
endfacet
facet normal -0.7071070047052389 -0.7071065576677855 -0.0
outer loop
vertex 0.0009773396849632264 0.00024194945394992828 0.0
vertex 0.0009066294431686402 0.00031265974044799807 9.999942779541016e-05
vertex 0.0009066294431686402 0.00031265974044799807 0.0
endloop
endfacet
facet normal -0.7071070047052389 -0.7071065576677855 0.0
outer loop
vertex 0.0009066294431686402 0.00031265974044799807 9.999942779541016e-05
vertex 0.0009773396849632264 0.00024194945394992828 0.0
vertex 0.0009773396849632264 0.00024194945394992828 9.999942779541016e-05
endloop
endfacet
facet normal 0.7071064831643112 0.707107079208658 0.0
outer loop
vertex 0.000383370578289032 0.0009773391485214233 0.0
vertex 0.0003126596212387085 0.0010480500459671021 9.999942779541016e-05
vertex 0.000383370578289032 0.0009773391485214233 9.999942779541016e-05
endloop
endfacet
facet normal 0.7071064831643112 0.707107079208658 0.0
outer loop
vertex 0.0003126596212387085 0.0010480500459671021 9.999942779541016e-05
vertex 0.000383370578289032 0.0009773391485214233 0.0
vertex 0.0003126596212387085 0.0010480500459671021 0.0
endloop
endfacet
facet normal -0.7071067811865475 -0.7071067811865475 0.0
outer loop
vertex 0.00024194934964179993 0.000977339804172516 9.999942779541016e-05
vertex 0.00031266030669212344 0.0009066288471221924 0.0
vertex 0.00031266030669212344 0.0009066288471221924 9.999942779541016e-05
endloop
endfacet
facet normal -0.7071067811865475 -0.7071067811865475 -0.0
outer loop
vertex 0.00031266030669212344 0.0009066288471221924 0.0
vertex 0.00024194934964179993 0.000977339804172516 9.999942779541016e-05
vertex 0.00024194934964179993 0.000977339804172516 0.0
endloop
endfacet
facet normal -0.7071067066803169 0.7071068556927702 0.0
outer loop
vertex 0.00031266030669212344 0.00038337001204490664 0.0
vertex 0.00024195002019405365 0.00031265974044799807 9.999942779541016e-05
vertex 0.00031266030669212344 0.00038337001204490664 9.999942779541016e-05
endloop
endfacet
facet normal -0.7071067066803169 0.7071068556927702 0.0
outer loop
vertex 0.00024195002019405365 0.00031265974044799807 9.999942779541016e-05
vertex 0.00031266030669212344 0.00038337001204490664 0.0
vertex 0.00024195002019405365 0.00031265974044799807 0.0
endloop
endfacet
facet normal 0.7071068556927702 -0.7071067066803169 0.0
outer loop
vertex 0.00031266030669212344 0.00024194945394992828 9.999942779541016e-05
vertex 0.000383370578289032 0.00031265974044799807 0.0
vertex 0.000383370578289032 0.00031265974044799807 9.999942779541016e-05
endloop
endfacet
facet normal 0.7071068556927702 -0.7071067066803169 0.0
outer loop
vertex 0.000383370578289032 0.00031265974044799807 0.0
vertex 0.00031266030669212344 0.00024194945394992828 9.999942779541016e-05
vertex 0.00031266030669212344 0.00024194945394992828 0.0
endloop
endfacet
facet normal -0.7071064831643119 0.7071070792086576 0.0
outer loop
vertex 0.0009066294431686402 0.0009773391485214233 9.999942779541016e-05
vertex 0.0009773404002189636 0.0010480500459671021 0.0
vertex 0.0009066294431686402 0.0009773391485214233 0.0
endloop
endfacet
facet normal -0.7071064831643119 0.7071070792086576 0.0
outer loop
vertex 0.0009773404002189636 0.0010480500459671021 0.0
vertex 0.0009066294431686402 0.0009773391485214233 9.999942779541016e-05
vertex 0.0009773404002189636 0.0010480500459671021 9.999942779541016e-05
endloop
endfacet
facet normal 0.7071067811865481 -0.707106781186547 0.0
outer loop
vertex 0.0009773396849632264 0.0009066288471221924 9.999942779541016e-05
vertex 0.0010480506420135498 0.000977339804172516 0.0
vertex 0.0010480506420135498 0.000977339804172516 9.999942779541016e-05
endloop
endfacet
facet normal 0.7071067811865481 -0.707106781186547 0.0
outer loop
vertex 0.0010480506420135498 0.000977339804172516 0.0
vertex 0.0009773396849632264 0.0009066288471221924 9.999942779541016e-05
vertex 0.0009773396849632264 0.0009066288471221924 0.0
endloop
endfacet
facet normal -0.7071067811865476 -0.7071067811865476 -0.0
outer loop
vertex 0.0009061265587806702 0.0006949998140335083 0.0
vertex 0.0006949992179870605 0.000906127154827118 9.999942779541016e-05
vertex 0.0006949992179870605 0.000906127154827118 0.0
endloop
endfacet
facet normal -0.7071067811865476 -0.7071067811865476 0.0
outer loop
vertex 0.0006949992179870605 0.000906127154827118 9.999942779541016e-05
vertex 0.0009061265587806702 0.0006949998140335083 0.0
vertex 0.0009061265587806702 0.0006949998140335083 9.999942779541016e-05
endloop
endfacet
facet normal 0.7071067811865477 0.7071067811865475 -0.0
outer loop
vertex 0.0005950007438659668 0.00038387224078178405 9.999942779541016e-05
vertex 0.0003838735520839691 0.0005949994325637818 0.0
vertex 0.0003838735520839691 0.0005949994325637818 9.999942779541016e-05
endloop
endfacet
facet normal 0.7071067811865477 0.7071067811865475 0.0
outer loop
vertex 0.0003838735520839691 0.0005949994325637818 0.0
vertex 0.0005950007438659668 0.00038387224078178405 9.999942779541016e-05
vertex 0.0005950007438659668 0.00038387224078178405 0.0
endloop
endfacet
facet normal 0.7071068810003647 -0.7071066813727165 0.0
outer loop
vertex 0.000383873462677002 0.0006949998140335083 9.999942779541016e-05
vertex 0.0005950007438659668 0.000906127154827118 0.0
vertex 0.0005950007438659668 0.000906127154827118 9.999942779541016e-05
endloop
endfacet
facet normal 0.7071068810003647 -0.7071066813727165 0.0
outer loop
vertex 0.0005950007438659668 0.000906127154827118 0.0
vertex 0.000383873462677002 0.0006949998140335083 9.999942779541016e-05
vertex 0.000383873462677002 0.0006949998140335083 0.0
endloop
endfacet
facet normal -0.7071067312796093 0.7071068310934824 0.0
outer loop
vertex 0.0009061264395713806 0.0005949994325637818 0.0
vertex 0.0006949992179870605 0.00038387224078178405 9.999942779541016e-05
vertex 0.0009061264395713806 0.0005949994325637818 9.999942779541016e-05
endloop
endfacet
facet normal -0.7071067312796093 0.7071068310934824 0.0
outer loop
vertex 0.0006949992179870605 0.00038387224078178405 9.999942779541016e-05
vertex 0.0009061264395713806 0.0005949994325637818 0.0
vertex 0.0006949992179870605 0.00038387224078178405 0.0
endloop
endfacet
facet normal 0.7071067811865475 0.7071067811865475 -0.0
outer loop
vertex 0.0008778416514396667 0.0006949998140335083 9.999942779541016e-05
vertex 0.0006949992179870605 0.0008778422474861145 0.0
vertex 0.0006949992179870605 0.0008778422474861145 9.999942779541016e-05
endloop
endfacet
facet normal 0.7071067811865475 0.7071067811865475 0.0
outer loop
vertex 0.0006949992179870605 0.0008778422474861145 0.0
vertex 0.0008778416514396667 0.0006949998140335083 9.999942779541016e-05
vertex 0.0008778416514396667 0.0006949998140335083 0.0
endloop
endfacet
facet normal -0.7071067235596362 -0.7071068388134542 0.0
outer loop
vertex 0.0004121571183204651 0.0005949994325637818 0.0
vertex 0.0005950007438659668 0.00041215583682060244 9.999942779541016e-05
vertex 0.0004121571183204651 0.0005949994325637818 9.999942779541016e-05
endloop
endfacet
facet normal -0.7071067235596362 -0.7071068388134542 0.0
outer loop
vertex 0.0005950007438659668 0.00041215583682060244 9.999942779541016e-05
vertex 0.0004121571183204651 0.0005949994325637818 0.0
vertex 0.0005950007438659668 0.00041215583682060244 0.0
endloop
endfacet
facet normal -0.707106896441117 0.7071066659319591 0.0
outer loop
vertex 0.0005950007438659668 0.0008778422474861145 9.999942779541016e-05
vertex 0.00041215837001800536 0.0006949998140335083 0.0
vertex 0.00041215837001800536 0.0006949998140335083 9.999942779541016e-05
endloop
endfacet
facet normal -0.707106896441117 0.7071066659319591 0.0
outer loop
vertex 0.00041215837001800536 0.0006949998140335083 0.0
vertex 0.0005950007438659668 0.0008778422474861145 9.999942779541016e-05
vertex 0.0005950007438659668 0.0008778422474861145 0.0
endloop
endfacet
facet normal 0.7071067235596362 -0.7071068388134542 0.0
outer loop
vertex 0.0006949992179870605 0.00041215583682060244 0.0
vertex 0.0008778428435325623 0.0005949994325637818 9.999942779541016e-05
vertex 0.0006949992179870605 0.00041215583682060244 9.999942779541016e-05
endloop
endfacet
facet normal 0.7071067235596362 -0.7071068388134542 0.0
outer loop
vertex 0.0008778428435325623 0.0005949994325637818 9.999942779541016e-05
vertex 0.0006949992179870605 0.00041215583682060244 0.0
vertex 0.0008778428435325623 0.0005949994325637818 0.0
endloop
endfacet
facet normal 0.0 1.0 -0.0
outer loop
vertex 0.00010103127360343933 0.0006949998140335083 0.0
vertex 4.95910626341356e-10 0.0006949998140335083 9.999942779541016e-05
vertex 0.00010103127360343933 0.0006949998140335083 9.999942779541016e-05
endloop
endfacet
facet normal 0.0 1.0 0.0
outer loop
vertex 4.95910626341356e-10 0.0006949998140335083 9.999942779541016e-05
vertex 0.00010103127360343933 0.0006949998140335083 0.0
vertex 4.95910626341356e-10 0.0006949998140335083 0.0
endloop
endfacet
facet normal 0.0 1.0 -0.0
outer loop
vertex 0.0012899994850158693 0.0006949998140335083 0.0
vertex 0.0011889687776565551 0.0006949998140335083 9.999942779541016e-05
vertex 0.0012899994850158693 0.0006949998140335083 9.999942779541016e-05
endloop
endfacet
facet normal 0.0 1.0 0.0
outer loop
vertex 0.0011889687776565551 0.0006949998140335083 9.999942779541016e-05
vertex 0.0012899994850158693 0.0006949998140335083 0.0
vertex 0.0011889687776565551 0.0006949998140335083 0.0
endloop
endfacet
facet normal 0.0 0.9999999999999999 -0.0
outer loop
vertex 0.00041215837001800536 0.0006949998140335083 0.0
vertex 0.000383873462677002 0.0006949998140335083 9.999942779541016e-05
vertex 0.00041215837001800536 0.0006949998140335083 9.999942779541016e-05
endloop
endfacet
facet normal 0.0 0.9999999999999999 0.0
outer loop
vertex 0.000383873462677002 0.0006949998140335083 9.999942779541016e-05
vertex 0.00041215837001800536 0.0006949998140335083 0.0
vertex 0.000383873462677002 0.0006949998140335083 0.0
endloop
endfacet
facet normal 0.0 1.0 0.0
outer loop
vertex 0.0008778416514396667 0.0006949998140335083 9.999942779541016e-05
vertex 0.0009061265587806702 0.0006949998140335083 0.0
vertex 0.0008778416514396667 0.0006949998140335083 0.0
endloop
endfacet
facet normal 0.0 1.0 -0.0
outer loop
vertex 0.0009061265587806702 0.0006949998140335083 0.0
vertex 0.0008778416514396667 0.0006949998140335083 9.999942779541016e-05
vertex 0.0009061265587806702 0.0006949998140335083 9.999942779541016e-05
endloop
endfacet
facet normal 0.0 -1.0 0.0
outer loop
vertex 4.95910626341356e-10 0.0005949994325637818 0.0
vertex 0.0001010308489203453 0.0005949994325637818 9.999942779541016e-05
vertex 4.95910626341356e-10 0.0005949994325637818 9.999942779541016e-05
endloop
endfacet
facet normal 0.0 -1.0 -0.0
outer loop
vertex 0.0001010308489203453 0.0005949994325637818 9.999942779541016e-05
vertex 4.95910626341356e-10 0.0005949994325637818 0.0
vertex 0.0001010308489203453 0.0005949994325637818 0.0
endloop
endfacet
facet normal 0.0 -1.0 0.0
outer loop
vertex 0.0011889691352844239 0.0005949994325637818 0.0
vertex 0.0012899994850158693 0.0005949994325637818 9.999942779541016e-05
vertex 0.0011889691352844239 0.0005949994325637818 9.999942779541016e-05
endloop
endfacet
facet normal 0.0 -1.0 -0.0
outer loop
vertex 0.0012899994850158693 0.0005949994325637818 9.999942779541016e-05
vertex 0.0011889691352844239 0.0005949994325637818 0.0
vertex 0.0012899994850158693 0.0005949994325637818 0.0
endloop
endfacet
facet normal 0.0 -1.0 0.0
outer loop
vertex 0.0003838735520839691 0.0005949994325637818 0.0
vertex 0.0004121571183204651 0.0005949994325637818 9.999942779541016e-05
vertex 0.0003838735520839691 0.0005949994325637818 9.999942779541016e-05
endloop
endfacet
facet normal 0.0 -1.0 -0.0
outer loop
vertex 0.0004121571183204651 0.0005949994325637818 9.999942779541016e-05
vertex 0.0003838735520839691 0.0005949994325637818 0.0
vertex 0.0004121571183204651 0.0005949994325637818 0.0
endloop
endfacet
facet normal 0.0 -1.0 0.0
outer loop
vertex 0.0008778428435325623 0.0005949994325637818 0.0
vertex 0.0009061264395713806 0.0005949994325637818 9.999942779541016e-05
vertex 0.0008778428435325623 0.0005949994325637818 9.999942779541016e-05
endloop
endfacet
facet normal 0.0 -1.0 -0.0
outer loop
vertex 0.0009061264395713806 0.0005949994325637818 9.999942779541016e-05
vertex 0.0008778428435325623 0.0005949994325637818 0.0
vertex 0.0009061264395713806 0.0005949994325637818 0.0
endloop
endfacet
facet normal 1.0 -0.0 0.0
outer loop
vertex 0.0006949992179870605 0.001188969373703003 9.999942779541016e-05
vertex 0.0006949992179870605 0.0012899999618530274 0.0
vertex 0.0006949992179870605 0.0012899999618530274 9.999942779541016e-05
endloop
endfacet
facet normal 1.0 0.0 0.0
outer loop
vertex 0.0006949992179870605 0.0012899999618530274 0.0
vertex 0.0006949992179870605 0.001188969373703003 9.999942779541016e-05
vertex 0.0006949992179870605 0.001188969373703003 0.0
endloop
endfacet
facet normal 1.0 -0.0 0.0
outer loop
vertex 0.0006949992179870605 0.0 9.999942779541016e-05
vertex 0.0006949992179870605 0.00010102953761816025 0.0
vertex 0.0006949992179870605 0.00010102953761816025 9.999942779541016e-05
endloop
endfacet
facet normal 1.0 0.0 0.0
outer loop
vertex 0.0006949992179870605 0.00010102953761816025 0.0
vertex 0.0006949992179870605 0.0 9.999942779541016e-05
vertex 0.0006949992179870605 0.0 0.0
endloop
endfacet
facet normal 1.0 0.0 0.0
outer loop
vertex 0.0006949992179870605 0.00041215583682060244 0.0
vertex 0.0006949992179870605 0.00038387224078178405 9.999942779541016e-05
vertex 0.0006949992179870605 0.00038387224078178405 0.0
endloop
endfacet
facet normal 1.0 -0.0 0.0
outer loop
vertex 0.0006949992179870605 0.00038387224078178405 9.999942779541016e-05
vertex 0.0006949992179870605 0.00041215583682060244 0.0
vertex 0.0006949992179870605 0.00041215583682060244 9.999942779541016e-05
endloop
endfacet
facet normal 1.0 -0.0 0.0
outer loop
vertex 0.0006949992179870605 0.0008778422474861145 9.999942779541016e-05
vertex 0.0006949992179870605 0.000906127154827118 0.0
vertex 0.0006949992179870605 0.000906127154827118 9.999942779541016e-05
endloop
endfacet
facet normal 1.0 0.0 0.0
outer loop
vertex 0.0006949992179870605 0.000906127154827118 0.0
vertex 0.0006949992179870605 0.0008778422474861145 9.999942779541016e-05
vertex 0.0006949992179870605 0.0008778422474861145 0.0
endloop
endfacet
facet normal -1.0 0.0 0.0
outer loop
vertex 0.0005950007438659668 0.001188969373703003 0.0
vertex 0.0005950007438659668 0.0012899999618530274 9.999942779541016e-05
vertex 0.0005950007438659668 0.0012899999618530274 0.0
endloop
endfacet
facet normal -1.0 -0.0 0.0
outer loop
vertex 0.0005950007438659668 0.0012899999618530274 9.999942779541016e-05
vertex 0.0005950007438659668 0.001188969373703003 0.0
vertex 0.0005950007438659668 0.001188969373703003 9.999942779541016e-05
endloop
endfacet
facet normal -1.0 0.0 0.0
outer loop
vertex 0.0005950007438659668 0.0 0.0
vertex 0.0005950007438659668 0.00010102953761816025 9.999942779541016e-05
vertex 0.0005950007438659668 0.00010102953761816025 0.0
endloop
endfacet
facet normal -1.0 -0.0 0.0
outer loop
vertex 0.0005950007438659668 0.00010102953761816025 9.999942779541016e-05
vertex 0.0005950007438659668 0.0 0.0
vertex 0.0005950007438659668 0.0 9.999942779541016e-05
endloop
endfacet
facet normal -1.0 0.0 0.0
outer loop
vertex 0.0005950007438659668 0.0008778422474861145 0.0
vertex 0.0005950007438659668 0.000906127154827118 9.999942779541016e-05
vertex 0.0005950007438659668 0.000906127154827118 0.0
endloop
endfacet
facet normal -1.0 -0.0 0.0
outer loop
vertex 0.0005950007438659668 0.000906127154827118 9.999942779541016e-05
vertex 0.0005950007438659668 0.0008778422474861145 0.0
vertex 0.0005950007438659668 0.0008778422474861145 9.999942779541016e-05
endloop
endfacet
facet normal -1.0 0.0 0.0
outer loop
vertex 0.0005950007438659668 0.00038387224078178405 0.0
vertex 0.0005950007438659668 0.00041215583682060244 9.999942779541016e-05
vertex 0.0005950007438659668 0.00041215583682060244 0.0
endloop
endfacet
facet normal -1.0 -0.0 0.0
outer loop
vertex 0.0005950007438659668 0.00041215583682060244 9.999942779541016e-05
vertex 0.0005950007438659668 0.00038387224078178405 0.0
vertex 0.0005950007438659668 0.00038387224078178405 9.999942779541016e-05
endloop
endfacet
endsolid walls
